HIERARCHY
ROOT hip
{
  OFFSET 0 0 0
  CHANNELS 6 Xposition Yposition Zposition Zrotation Yrotation Xrotation
  JOINT abdomen
  {
    OFFSET 0 20.6881 -0.73152
    CHANNELS 3 Zrotation Xrotation Yrotation
    JOINT chest
    {
      OFFSET 0 11.7043 -0.48768
      CHANNELS 3 Zrotation Xrotation Yrotation
      JOINT neck
      {
        OFFSET 0 22.1894 -2.19456
        CHANNELS 3 Zrotation Xrotation Yrotation
        JOINT head
        {
          OFFSET -0.24384 7.07133 1.2192
          CHANNELS 3 Zrotation Xrotation Yrotation
          JOINT leftEye
          {
            OFFSET 4.14528 8.04674 8.04672
            CHANNELS 3 Zrotation Xrotation Yrotation
            End Site
            {
              OFFSET 1 0 0
            }
          }
          JOINT rightEye
          {
            OFFSET -3.6576 8.04674 8.04672
            CHANNELS 3 Zrotation Xrotation Yrotation
            End Site
            {
              OFFSET 1 0 0
            }
          }
        }
      }
      JOINT rCollar
      {
        OFFSET -2.68224 19.2634 -4.8768
        CHANNELS 3 Zrotation Xrotation Yrotation
        JOINT rShldr
        {
          OFFSET -8.77824 -1.95073 1.46304
          CHANNELS 3 Zrotation Xrotation Yrotation
          JOINT rForeArm
          {
            OFFSET -28.1742 -1.7115 0.48768
            CHANNELS 3 Zrotation Xrotation Yrotation
            JOINT rHand
            {
              OFFSET -22.5879 0.773209 7.07136
              CHANNELS 3 Zrotation Xrotation Yrotation
              JOINT rThumb1
              {
                OFFSET -1.2192 -0.487915 3.41376
                CHANNELS 3 Zrotation Xrotation Yrotation
                JOINT rThumb2
                {
                  OFFSET -3.37035 -0.52449 3.41376
                  CHANNELS 3 Zrotation Xrotation Yrotation
                  End Site
                  {
                    OFFSET -1.78271 -1.18214 1.43049
                  }
                }
              }
              JOINT rIndex1
              {
                OFFSET -7.75947 0.938293 5.60832
                CHANNELS 3 Zrotation Xrotation Yrotation
                JOINT rIndex2
                {
                  OFFSET -2.54057 -0.884171 1.56538
                  CHANNELS 3 Zrotation Xrotation Yrotation
                  End Site
                  {
                    OFFSET -1.62519 -0.234802 1.16502
                  }
                }
              }
              JOINT rMid1
              {
                OFFSET -8.24714 1.18213 3.41376
                CHANNELS 3 Zrotation Xrotation Yrotation
                JOINT rMid2
                {
                  OFFSET -3.10165 -0.590103 1.0647
                  CHANNELS 3 Zrotation Xrotation Yrotation
                  End Site
                  {
                    OFFSET -2.48547 -0.328903 0.83742
                  }
                }
              }
              JOINT rRing1
              {
                OFFSET -8.82822 0.546677 1.51678
                CHANNELS 3 Zrotation Xrotation Yrotation
                JOINT rRing2
                {
                  OFFSET -2.60934 -0.819778 -0.0198488
                  CHANNELS 3 Zrotation Xrotation Yrotation
                  End Site
                  {
                    OFFSET -2.33842 -0.294052 0.168128
                  }
                }
              }
              JOINT rPinky1
              {
                OFFSET -8.27202 -0.0477905 -0.4584
                CHANNELS 3 Zrotation Xrotation Yrotation
                JOINT rPinky2
                {
                  OFFSET -1.82734 -0.647385 -0.700984
                  CHANNELS 3 Zrotation Xrotation Yrotation
                  End Site
                  {
                    OFFSET -1.69225 -0.51767 -0.607171
                  }
                }
              }
            }
          }
        }
      }
      JOINT lCollar
      {
        OFFSET 2.68224 19.2634 -4.8768
        CHANNELS 3 Zrotation Xrotation Yrotation
        JOINT lShldr
        {
          OFFSET 8.77824 -1.95073 1.46304
          CHANNELS 3 Zrotation Xrotation Yrotation
          JOINT lForeArm
          {
            OFFSET 28.1742 -1.7115 0.48768
            CHANNELS 3 Zrotation Xrotation Yrotation
            JOINT lHand
            {
              OFFSET 22.5879 0.773209 7.07136
              CHANNELS 3 Zrotation Xrotation Yrotation
              JOINT lThumb1
              {
                OFFSET 1.2192 -0.487915 3.41376
                CHANNELS 3 Zrotation Xrotation Yrotation
                JOINT lThumb2
                {
                  OFFSET 3.37035 -0.52449 3.41376
                  CHANNELS 3 Zrotation Xrotation Yrotation
                  End Site
                  {
                    OFFSET 1.78271 -1.18214 1.43049
                  }
                }
              }
              JOINT lIndex1
              {
                OFFSET 7.75947 0.938293 5.60832
                CHANNELS 3 Zrotation Xrotation Yrotation
                JOINT lIndex2
                {
                  OFFSET 2.54057 -0.884171 1.56538
                  CHANNELS 3 Zrotation Xrotation Yrotation
                  End Site
                  {
                    OFFSET 1.62519 -0.234802 1.16502
                  }
                }
              }
              JOINT lMid1
              {
                OFFSET 8.24714 1.18213 3.41376
                CHANNELS 3 Zrotation Xrotation Yrotation
                JOINT lMid2
                {
                  OFFSET 3.10165 -0.590103 1.0647
                  CHANNELS 3 Zrotation Xrotation Yrotation
                  End Site
                  {
                    OFFSET 2.48547 -0.328903 0.83742
                  }
                }
              }
              JOINT lRing1
              {
                OFFSET 8.82822 0.546677 1.51678
                CHANNELS 3 Zrotation Xrotation Yrotation
                JOINT lRing2
                {
                  OFFSET 2.60934 -0.819778 -0.0198488
                  CHANNELS 3 Zrotation Xrotation Yrotation
                  End Site
                  {
                    OFFSET 2.33842 -0.294052 0.168128
                  }
                }
              }
              JOINT lPinky1
              {
                OFFSET 8.27202 -0.0477905 -0.4584
                CHANNELS 3 Zrotation Xrotation Yrotation
                JOINT lPinky2
                {
                  OFFSET 1.82734 -0.647385 -0.700984
                  CHANNELS 3 Zrotation Xrotation Yrotation
                  End Site
                  {
                    OFFSET 1.69225 -0.51767 -0.607171
                  }
                }
              }
            }
          }
        }
      }
    }
  }
  JOINT rButtock
  {
    OFFSET -8.77824 4.35084 1.2192
    CHANNELS 3 Zrotation Xrotation Yrotation
    JOINT rThigh
    {
      OFFSET 0 -1.70687 -2.19456
      CHANNELS 3 Zrotation Xrotation Yrotation
      JOINT rShin
      {
        OFFSET 0 -36.8199 0.73152
        CHANNELS 3 Zrotation Xrotation Yrotation
        JOINT rFoot
        {
          OFFSET 0.73152 -45.1104 -5.12064
          CHANNELS 3 Zrotation Xrotation Yrotation
          End Site
          {
            OFFSET -1.1221 -3.69964 12.103
          }
        }
      }
    }
  }
  JOINT lButtock
  {
    OFFSET 8.77824 4.35084 1.2192
    CHANNELS 3 Zrotation Xrotation Yrotation
    JOINT lThigh
    {
      OFFSET 0 -1.70687 -2.19456
      CHANNELS 3 Zrotation Xrotation Yrotation
      JOINT lShin
      {
        OFFSET 0 -36.8199 0.73152
        CHANNELS 3 Zrotation Xrotation Yrotation
        JOINT lFoot
        {
          OFFSET -0.73152 -45.1104 -5.12064
          CHANNELS 3 Zrotation Xrotation Yrotation
          End Site
          {
            OFFSET 1.1221 -3.69964 12.103
          }
        }
      }
    }
  }
}
MOTION
Frames:	4
Frame Time:	0.03333
1.4985248446464539 55.72546124458313 -4.369980562478304 9.801931053351721 17.858776094521865 6.4365324978595355 -18.032962993830115 11.55012394783201 -6.640665934696884 7.171520189821322 -9.263502118437739 -2.033564601305767 -8.512650885241774 18.642244896099225 -12.220618005442773 13.806551218452945 -25.800981533115223 -21.259836348331156 0.047277795702461343 -0.05365337708627157 -0.02799879969752022 0.014403054690558607 -0.2705948059995686 -0.07202753310874468 0.168497378410056 -0.005122001547274875 0.14005101455891483 56.846701405343154 35.28608230898485 3.6562677108258796 -18.555865201213365 -11.333093833181207 34.5403076138895 -0.22320412541281692 10.337033686139907 1.107615065434179 0.20495743512768652 -0.02747000698558636 -0.10954868372632048 -0.27928718221376186 -0.1585760750733629 -0.29050672842085984 -0.1526783134467627 -0.043909151739896346 0.35846972534427834 7.727102291062145 5.544888440867982 0.41727583982908983 0.012135218442702812 -0.00684779825146669 0.14808837296366123 2.7880879149542594 0.9842569398252827 0.18486036388707772 -0.015689958379724214 0.009047972937857047 0.17900527760257684 10.477052564125168 0.5910849442988737 -0.24277976773919083 0.05616603292719001 0.37262673314215783 -0.17209591426708748 2.144232448880191 -1.0054911441812062 -0.22615495389724755 -0.07196346006463614 0.0007621530618382197 -0.16759864824524398 -66.99968198391873 35.081084426330676 -13.899675725144192 14.299632819919921 -7.576600780248207 -26.45505923105586 0.7072228662639789 14.565987999435615 -1.7099241983343523 -0.12931911984617198 0.042090773955939124 -0.025744797250776344 -0.07181271565521985 -0.013508833517815844 0.007084613716595726 -0.14786612501137136 0.05884461434017216 0.0455352170100354 -7.654273691489592 5.279298669426153 -0.5793140203988558 -0.029915508193141826 0.156291216713435 -0.21613103764044558 -2.547481054505632 0.8563253088759755 0.12015774175570891 -0.14800416953779966 -0.357222735573075 0.09268233198376737 -10.146924762102712 0.8696733127831786 0.140288136848948 0.015866109225223107 0.05005613522992271 0.006892301202777554 -1.9563234860859737 -0.6217524403113781 0.5491213826162261 0.182246629250571 -0.0163009935061759 -0.3193187608566479 -63.93083017850781 -58.13096821460231 -53.96475772656964 -2.423830724866306 72.87010663213962 2.6380079548781574 0.7850763506315461 -4.016184529139702 9.114391404893544 -0.2328525680282533 -0.1016288392598527 -0.18745048634618025 7.1251205803553095 14.846652425262487 5.0303233331403785 -0.6615097441704058 28.769764236996284 -2.169755371704648 11.800435012987343 -20.680260646309726 33.56351543049681
1.4901688322424889 55.73055148124695 -4.310599714517593 9.83692125869605 17.74797847335321 6.542199793187864 -17.93563279815743 11.585342110739887 -6.716326928340877 7.145745617214633 -9.309134612282595 -2.0583137917633083 -8.533787759402026 18.637851376915613 -12.222924901834945 13.835074088426918 -25.841368441677506 -21.278902821399246 0.05304695767359493 -0.06647833791343989 -0.018816357410378546 0.01771057379613728 -0.2881816893387052 -0.06202258663514538 0.1664263369876612 0.0047439932653969815 0.13956094848596642 56.85987001006294 35.34154002995077 3.7261670130181437 -18.510113179058035 -11.253886690697508 34.36801609207593 -0.22867830858917057 10.397870181077211 1.1188460308637955 0.20769516704609806 -0.029186732344786755 -0.11190317799927083 -0.2705806120126997 -0.15571732074059524 -0.3017353993338021 -0.15901320718024373 -0.0430424647672452 0.3521924613319193 7.717488799805352 5.552943795220367 0.40879503939660833 0.019431674745274713 -0.010980009338471514 0.14354170813225414 2.790602064899059 0.9742466572663944 0.18398247113531951 -0.022201583257979336 -0.007390264681953797 0.18289912575971878 10.475403073440612 0.5948116662647619 -0.24883387666476087 0.052241875805606124 0.3672547893599428 -0.17787019888009856 2.1397089426589386 -1.0150334520602429 -0.23572426236784697 -0.066591569643274 0.0001300403984946959 -0.16957438718437595 -66.84506016148798 35.156182356254966 -14.151781422503946 14.325363850070651 -7.58290248353119 -26.45066571187225 0.7043870570979542 14.456057812291553 -1.6890197640492934 -0.13589360380913237 0.04235202869169211 -0.024126896191129572 -0.06629520346631892 -0.02553476893379845 0.01588499229703981 -0.13880705301611304 0.06506115370194157 0.04928605808143021 -7.657405333224043 5.269270244177282 -0.5639531383989087 -0.03410230743265386 0.15061148753174625 -0.21965381442658546 -2.5466490520873597 0.8515614653733031 0.12258744815080871 -0.14796212118572177 -0.3547087990716872 0.07684632494968123 -10.14247916272668 0.8770529052945543 0.1484631262335128 0.014053120887407846 0.04713521550353733 0.0004892122993021633 -1.9482619418746547 -0.6174931770336405 0.5548211754786017 0.17039753170106828 -0.0015368992849586504 -0.3212122173606224 -64.1113862292171 -58.13773693206979 -54.177972326795334 -2.4292658478983435 72.9805371306404 2.6653474945784263 0.7194104850642203 -4.047149191741954 8.824671855774529 -0.21373252066386042 -0.09696816896624458 -0.18899965862730378 7.242546473226638 14.864380181253255 5.089074912833536 -0.6577847297518101 28.795855559625732 -2.1791295928970786 11.699001581170776 -20.55275638243122 33.54039182506173
1.480013132095337 55.75941801071167 -4.23477916046977 9.74992257791666 17.733674349683913 6.392756107921631 -17.971528857340434 11.483106131695843 -6.842547970429066 7.180301251773019 -9.290835681722484 -2.0491455434630357 -8.573786200955267 18.70234031551158 -12.306623747471573 13.937737808067734 -25.82168383648953 -21.519480866987315 0.04837564188983511 -0.06578806192044548 -0.02920571546820263 0.020674022122276564 -0.28574181770112966 -0.06016264074678628 0.1482820461792281 0.017576211168558436 0.14332139451088158 57.040938324959974 35.37030878673487 3.6149365286108397 -18.389352019437624 -11.078370465822044 34.00320202812721 -0.22406622335211948 10.701687240643134 1.1824843974646853 0.1916199966693557 -0.04444265354709781 -0.10800868951189417 -0.2721716192024895 -0.1474707210914511 -0.31776115756076767 -0.1472262216635058 -0.03396877189829482 0.33546767593208526 7.700940105220058 5.561204909021497 0.4040137468950407 0.018213659917191035 -0.004312624130628363 0.13086434342418157 2.799482804923956 0.9747749297100126 0.1822163336263423 -0.019271111938926524 -0.027176468933834484 0.177731660765781 10.456894968337169 0.6031846244135513 -0.24802556646517218 0.040000255822239206 0.37152899367648984 -0.1755210406924373 2.143563517228353 -0.9987955310821838 -0.2575831088677092 -0.06851378764695658 0.002919158818239981 -0.1814314888618123 -67.37312257678917 35.20950564310525 -13.381735650192955 14.349752748049474 -7.669639909574828 -26.557868945990183 0.732735330361269 14.196740288941909 -1.60544044672314 -0.12386542723732835 0.03347555753502585 -0.018190714750448023 -0.08498324136570849 -0.03339066041807671 0.024314192784776017 -0.13066642802080988 0.05688125511891084 0.050836511023023105 -7.651309389389806 5.258164783473664 -0.5523492873292918 -0.03380247280026088 0.14133032766675674 -0.2153975927174626 -2.5474001594526494 0.8585741486602021 0.1112102473038451 -0.1310809884869179 -0.3434906402467644 0.09288083435652085 -10.154460168304528 0.8765360520734548 0.1414570596923722 0.03022252653035522 0.05283692935661704 -0.0026840509004034483 -1.9433113353868647 -0.6021818139051759 0.5564127162769205 0.15482384661979295 0.021386176064956176 -0.3166167807096732 -64.12450019242353 -58.08335496589815 -54.12709083257333 -2.3575817318985903 72.9482371660554 2.6249196048811205 0.7439803830560487 -4.025989265693255 8.975909319471535 -0.20075964355247902 -0.09966494643006246 -0.17428956558921194 7.294428590162055 15.042607137455567 5.076720808172275 -0.675002782875766 28.761127462790803 -2.1712127633187994 11.664283729619601 -20.493262019665824 33.56623726088106
1.4753526076674461 55.850911140441895 -4.178881458938122 9.57187918304829 17.764136993382166 6.128904192736746 -18.071340119229124 11.358838523710277 -7.005759609514752 7.274095117002927 -9.245944263402574 -2.0316944101336527 -8.622814152591264 18.84420505212004 -12.451150550309043 14.111482452627225 -25.796347249763368 -21.876088458648265 0.04196102704213533 -0.046846453248119174 -0.04676132934754525 0.011924122908667104 -0.2855038282972371 -0.06475092704344813 0.13049196471228364 0.024122520601192535 0.14041386835857175 57.44646714655114 35.55031159212138 3.302516205455052 -18.269403652328446 -10.933285295019926 33.70446321420919 -0.23659001552557254 10.96601043888075 1.231252161581988 0.1727812677214027 -0.06505925939166396 -0.1140169081039782 -0.27849178534057273 -0.13914557426685178 -0.3333315342691638 -0.14259076437288853 -0.020316931294731836 0.3310865364663452 7.699596265500857 5.574124211836576 0.396254278471936 0.02001309459837205 0.013778359185766894 0.11112840509572394 2.8042899774391756 0.9864888108582902 0.18539781439739308 -0.009814501589632306 -0.04144676182240097 0.17222225942651948 10.443598297570446 0.6183208572228285 -0.24889396098511582 0.02116771673322155 0.38374137191247265 -0.15543388123025292 2.1562164426658015 -0.9638363817542371 -0.2723872237285945 -0.06781257267911957 0.01583179152670776 -0.19718958905067796 -68.20264905148723 35.14997371429943 -12.292233392664002 14.385976656312637 -7.795428088424368 -26.74548228965939 0.7386336255963981 14.019360276196679 -1.545368292642643 -0.10323548117953953 0.023176912927116003 -0.0038749584152186402 -0.10291590303157697 -0.04724687308821117 0.031127306481863737 -0.12141344268614666 0.04552841350129183 0.05347061616512084 -7.648935898653227 5.259409158563075 -0.541007117882251 -0.02195396222013993 0.13499522048986412 -0.20269776309032303 -2.5590765812821976 0.8732520117431479 0.09494153711366808 -0.11020136699845338 -0.33737228485431386 0.12252001337296807 -10.188314000925697 0.8734267151755122 0.13495194483816975 0.059944735033900395 0.05428562315174732 0.00052357668856379 -1.9468781882374924 -0.5744824086130124 0.5680697147560166 0.14721800409216063 0.03651451146800551 -0.3006409682410134 -63.993995767952086 -58.05479794497833 -53.913039534174295 -2.321741594889418 72.91592354109207 2.6331316266975917 0.8296723632698518 -3.997325096180827 9.416661426612459 -0.200080893503709 -0.09578187716520443 -0.15806829319725477 7.345841131592033 15.189804544258513 5.119815032966824 -0.7083464857432988 28.85844741317973 -2.149410159157884 11.69803510940322 -20.523449748249988 33.610203188568434
